<?xml version="1.0" encoding="UTF-8" standalone="no"?>
<!-- Created with Inkscape (http://www.inkscape.org/) -->

<svg
   xmlns:dc="http://purl.org/dc/elements/1.1/"
   xmlns:cc="http://creativecommons.org/ns#"
   xmlns:rdf="http://www.w3.org/1999/02/22-rdf-syntax-ns#"
   xmlns:svg="http://www.w3.org/2000/svg"
   xmlns="http://www.w3.org/2000/svg"
   xmlns:sodipodi="http://sodipodi.sourceforge.net/DTD/sodipodi-0.dtd"
   xmlns:inkscape="http://www.inkscape.org/namespaces/inkscape"
   width="203mm"
   height="157mm"
   viewBox="0 0 719.29132 556.29894"
   id="svg2"
   version="1.1"
   inkscape:version="0.91 r13725"
   sodipodi:docname="drawing.svg"
   inkscape:export-filename="C:\Users\students\drawing.png"
   inkscape:export-xdpi="90"
   inkscape:export-ydpi="90">
  <defs
     id="defs4">
    <inkscape:perspective
       sodipodi:type="inkscape:persp3d"
       inkscape:vp_x="-64.320859 : 254.4332 : 1"
       inkscape:vp_y="667.55796 : 1730.8477 : 1"
       inkscape:vp_z="1014.2493 : -31.763571 : 1"
       inkscape:persp3d-origin="842.43717 : -448.03616 : 1"
       id="perspective3560" />
    <inkscape:perspective
       sodipodi:type="inkscape:persp3d"
       inkscape:vp_x="-180.15852 : 754.27382 : 1"
       inkscape:vp_y="1677.1636 : 1137.6366 : 1"
       inkscape:vp_z="1112.4731 : -255.57299 : 1"
       inkscape:persp3d-origin="830.07099 : -363.68896 : 1"
       id="perspective3429" />
    <inkscape:perspective
       sodipodi:type="inkscape:persp3d"
       inkscape:vp_x="-60.266087 : 256.00525 : 1"
       inkscape:vp_y="874.94755 : 1672.9154 : 1"
       inkscape:vp_z="1028.243 : -124.91608 : 1"
       inkscape:persp3d-origin="811.02353 : -385.74047 : 1"
       id="perspective3370" />
    <inkscape:perspective
       sodipodi:type="inkscape:persp3d"
       inkscape:vp_x="-64.319486 : 253.62229 : 1"
       inkscape:vp_y="667.53055 : 1747.0413 : 1"
       inkscape:vp_z="1014.2563 : -35.894525 : 1"
       inkscape:persp3d-origin="842.45229 : -456.96214 : 1"
       id="perspective3336" />
  </defs>
  <sodipodi:namedview
     id="base"
     pagecolor="#ffffff"
     bordercolor="#666666"
     borderopacity="1.0"
     inkscape:pageopacity="0.0"
     inkscape:pageshadow="2"
     inkscape:zoom="0.7"
     inkscape:cx="355.93512"
     inkscape:cy="369.19501"
     inkscape:document-units="px"
     inkscape:current-layer="layer1"
     showgrid="false"
     inkscape:window-width="1366"
     inkscape:window-height="705"
     inkscape:window-x="-8"
     inkscape:window-y="-8"
     inkscape:window-maximized="1"
     inkscape:snap-others="false"
     fit-margin-top="4"
     fit-margin-bottom="103.1" />
  <metadata
     id="metadata7">
    <rdf:RDF>
      <cc:Work
         rdf:about="">
        <dc:format>image/svg+xml</dc:format>
        <dc:type
           rdf:resource="http://purl.org/dc/dcmitype/StillImage" />
        <dc:title></dc:title>
      </cc:Work>
    </rdf:RDF>
  </metadata>
  <g
     inkscape:groupmode="layer"
     id="layer2"
     inkscape:label="Layer 2"
     transform="translate(0,-496.06332)">
    <rect
       style="opacity:1;fill:#333333;fill-opacity:1;stroke:#676a6a;stroke-width:1.62242341;stroke-linecap:round;stroke-miterlimit:4;stroke-dasharray:none;stroke-opacity:1"
       id="rect3577"
       width="0"
       height="0"
       x="0"
       y="0" />
    <path
       sodipodi:type="star"
       style="opacity:1;fill:#cccccc;fill-opacity:1;stroke:#676a6a;stroke-width:1.62242341;stroke-linecap:round;stroke-miterlimit:4;stroke-dasharray:none;stroke-opacity:1"
       id="path3594"
       sodipodi:sides="5"
       sodipodi:cx="347.49249"
       sodipodi:cy="488.69708"
       sodipodi:r1="418.63239"
       sodipodi:r2="338.68069"
       sodipodi:arg1="-2.3732577"
       sodipodi:arg2="-1.7449391"
       inkscape:flatsided="true"
       inkscape:rounded="0"
       inkscape:randomized="0"
       d="M 46.467018,197.77314 531.15561,112.5044 762.02802,547.12116 420.02642,900.99783 -22.214601,685.08888 Z"
       inkscape:transform-center-x="-3.01206"
       inkscape:transform-center-y="26.215131"
       transform="matrix(0.82664431,0.10459132,-0.12178609,0.70993179,131.56367,369.44119)" />
    <path
       style="opacity:1;fill:#cccccc;fill-opacity:1;stroke:#676a6a;stroke-width:2.32252049;stroke-linecap:round;stroke-miterlimit:4;stroke-dasharray:none;stroke-opacity:1"
       d="M 199.78885,952.36389 C 74.580651,878.87203 31.914118,853.17763 32.311177,851.50645 32.604215,850.27309 58.390383,774.31736 89.613778,682.71594 l 56.769792,-166.54803 44.34214,-1.10954 c 24.38816,-0.61027 116.41972,-2.9681 204.51456,-5.23965 88.09484,-2.27156 160.26421,-4.03385 160.37638,-3.91621 0.11217,0.11762 31.11364,74.43604 68.89216,165.15204 65.30795,156.82134 68.55546,165.04927 65.99064,167.19586 -5.1461,4.30688 -320.33831,212.96979 -321.51615,212.84939 -0.65119,-0.067 -76.78868,-44.4977 -169.19445,-98.73591 z m 260.94888,-85.65145 147.97367,-115.7547 -5.05427,-5.47744 c -2.77987,-3.0126 -11.23121,-12.28029 -18.7808,-20.5949 -12.80571,-14.10334 -14.86825,-15.73657 -30.74616,-24.34653 -9.36081,-5.07597 -18.40162,-9.22671 -20.09069,-9.22385 -1.68906,0.003 -13.59416,1.87589 -26.45577,4.16231 -12.86162,2.2864 -23.63964,3.93555 -23.95117,3.66474 -0.31152,-0.27079 3.74948,-32.63328 9.02448,-71.91665 l 9.59088,-71.42431 -19.18863,-19.75113 c -10.55375,-10.86312 -19.62553,-19.74065 -20.15952,-19.72785 -0.53398,0.0128 -57.74935,30.3405 -127.14527,67.39489 l -126.17438,67.37162 -10.4293,30.09809 c -5.73612,16.55395 -10.44493,30.2435 -10.46402,30.42121 -0.0191,0.1777 7.49342,3.6009 16.69446,7.60706 l 16.72918,7.28396 29.19412,-7.35053 c 16.05677,-4.0428 29.45694,-7.35098 29.77816,-7.35153 0.32122,-5.4e-4 -7.79023,30.54483 -18.02547,67.87861 -10.23522,37.33378 -21.84863,79.72517 -25.80756,94.2031 l -7.1981,26.32351 -9.41669,6.34876 c -5.1792,3.49182 -9.95177,6.74615 -10.60573,7.23185 -0.65396,0.4857 4.35984,9.62535 11.14176,20.3103 l 12.3308,19.42719 37.96876,15.34436 c 20.88281,8.43941 38.71684,14.95247 39.63116,14.47347 0.91434,-0.479 68.25057,-52.96052 149.6361,-116.62561 z"
       id="path3600"
       inkscape:connector-curvature="0" />
    <path
       style="opacity:1;fill:#cccccc;fill-opacity:1;stroke:#676a6a;stroke-width:2.32252049;stroke-linecap:round;stroke-miterlimit:4;stroke-dasharray:none;stroke-opacity:1"
       d="M 319.33654,1020.3806 C 165.36585,930.39908 66.263451,871.8252 45.23912,858.3769 39.062744,854.42615 34.45445,850.53899 34.831381,849.59785 35.36307,848.27027 109.71337,629.76497 141.31295,536.66315 l 6.20922,-18.2942 12.35251,-0.76448 c 18.97622,-1.17442 375.93273,-9.70927 386.14482,-9.23273 l 8.99677,0.41982 11.93586,28.72331 c 6.56471,15.79782 30.45653,73.211 53.09294,127.58484 52.51076,126.1336 66.72134,161.18293 67.8725,167.40242 1.08321,5.85236 13.69173,-3.27608 -96.5784,69.92177 -133.00606,88.29008 -221.0351,146.1228 -222.42175,146.1252 -0.75718,0 -23.06858,-12.6746 -49.58088,-28.1685 z m 52.90618,-82.42709 C 523.89853,819.71093 608.06357,753.74798 609.33925,752.13305 c 0.9916,-1.25534 -4.07608,-7.63298 -17.66505,-22.23137 -19.5975,-21.05319 -27.02802,-26.70958 -48.07349,-36.59537 l -8.32106,-3.90869 -22.79789,3.67006 c -12.53883,2.01854 -23.71743,3.67162 -24.84133,3.67353 -1.59524,0.003 -1.81936,-1.82965 -1.0218,-8.35395 2.00278,-16.38342 16.02601,-122.11932 16.91441,-127.5355 0.89831,-5.47672 0.77582,-5.64597 -17.39535,-24.0349 -10.06504,-10.18565 -19.47287,-19.35398 -20.90629,-20.37407 -2.95552,-2.10329 -4.46731,-1.32997 -167.00403,85.42714 l -90.18955,48.14043 -10.42666,29.97007 c -5.73466,16.48355 -10.4409,30.67064 -10.45832,31.5269 -0.0174,0.85626 7.68939,4.9858 17.12623,9.17677 l 17.15792,7.61996 27.76563,-6.91319 c 15.27109,-3.80225 28.54759,-6.9145 29.50332,-6.91612 1.18325,-0.002 1.03808,1.17129 -0.45496,3.67727 -1.20596,2.0241 -2.19567,4.40722 -2.19936,5.2958 -0.003,0.88858 -10.63229,40.49699 -23.61909,88.0187 -12.98683,47.5217 -23.61203,86.61745 -23.61159,86.87943 4.4e-4,0.26199 -4.47741,3.59557 -9.95078,7.40796 -5.47337,3.81237 -9.94999,7.86837 -9.94805,9.01329 0.002,1.14493 5.01859,10.49501 11.1481,20.77795 l 11.14457,18.69628 13.03802,5.34705 c 33.63971,13.79604 62.40598,24.73711 65.22303,24.80719 1.98286,0.0494 24.6286,-16.70659 62.76689,-46.44216 z"
       id="path3602"
       inkscape:connector-curvature="0" />
    <path
       style="opacity:1;fill:#cccccc;fill-opacity:1;stroke:#676a6a;stroke-width:2.32252049;stroke-linecap:round;stroke-miterlimit:4;stroke-dasharray:none;stroke-opacity:1"
       d="M 301.81565,1008.1404 C 172.20901,932.51368 52.789859,861.6694 41.050223,853.44378 l -4.528372,-3.1729 56.138015,-165.04816 c 30.875904,-90.7765 56.268124,-165.17545 56.427154,-165.33101 0.51898,-0.50769 91.65747,-3.13161 187.1477,-5.38808 169.92981,-4.01551 209.95338,-4.79143 213.86485,-4.14607 3.60972,0.59556 6.08412,5.95807 36.77365,79.69592 53.37043,128.23334 83.7671,201.94059 92.30611,223.82814 7.77326,19.92472 7.92684,20.60453 5.24883,23.23307 -4.37921,4.29834 -17.24397,13.00979 -110.70004,74.96121 -145.97577,96.7664 -202.75232,133.7696 -205.17116,133.717 -1.26462,-0.028 -31.29821,-16.9711 -66.74131,-37.6525 z m 19.18748,-29.26004 c 5.43111,-3.81251 18.14122,-13.28952 28.24467,-21.06003 26.08152,-20.05919 241.37932,-188.3977 253.34593,-198.08785 l 9.94968,-8.05691 -5.68837,-7.18228 c -10.10183,-12.7548 -31.91288,-34.47575 -40.50027,-40.33294 -4.5972,-3.13561 -13.35401,-8.12719 -19.45957,-11.09241 l -11.10102,-5.39131 -23.74397,3.75914 c -13.05917,2.06752 -23.90237,3.62143 -24.09597,3.45315 -0.19363,-0.16828 3.77867,-31.26139 8.8273,-69.0958 9.07819,-68.03196 9.14815,-68.83645 6.3508,-73.02192 -5.24757,-7.85153 -36.35712,-37.81417 -39.25653,-37.80926 -5.66716,0.01 -16.63078,5.66411 -197.65213,101.93964 l -59.26087,31.51768 -6.00189,16.7215 c -10.79303,30.06979 -15.67766,45.54262 -14.91914,47.25875 0.99131,2.24283 31.72315,16.87144 35.44562,16.8724 1.60381,2.9e-4 14.23002,-2.78869 28.05826,-6.198 13.82822,-3.40933 25.38732,-5.98572 25.68691,-5.72533 0.64281,0.55875 -0.64157,5.42873 -27.63927,104.79862 -17.43804,64.18383 -21.2254,76.54973 -23.9545,78.21226 -6.63406,4.04137 -16.25274,12.50051 -16.24971,14.29077 0.002,1.01848 5.13877,10.76038 11.41565,21.64867 11.25121,19.5171 11.51712,19.83635 18.81526,22.58873 4.07151,1.53551 21.20727,8.20265 38.07945,14.81584 16.87219,6.61322 31.74594,12.04307 33.0528,12.06637 1.30684,0.0233 6.81974,-3.07697 12.25088,-6.88948 z"
       id="path3604"
       inkscape:connector-curvature="0" />
    <path
       style="opacity:1;fill:#e6e6e6;fill-opacity:1;stroke:#676a6a;stroke-width:2.32252049;stroke-linecap:round;stroke-miterlimit:4;stroke-dasharray:none;stroke-opacity:1"
       d="M 362.41736,1040.8723 C 269.47584,987.72429 77.019452,874.39849 46.612009,854.91376 c -4.49321,-2.87919 -7.875771,-5.93557 -7.516802,-6.79197 0.358969,-0.85636 25.5534,-74.75881 55.987623,-164.22767 l 55.33497,-162.67061 30.83344,-0.93852 c 45.4042,-1.38201 185.18082,-4.90155 235.45615,-5.92871 l 43.68378,-0.8925 -13.0184,6.2282 c -7.16012,3.4255 -16.80875,8.2208 -21.44141,10.65619 -14.47543,7.60979 -219.73795,116.45618 -220.20927,116.77233 -0.72178,0.48419 -17.01156,47.33978 -19.64977,56.52021 -2.22294,7.73541 -2.21451,8.58951 0.10672,10.81906 3.2432,3.11508 31.91922,16.16047 35.51017,16.15439 1.50366,-0.003 13.34523,-2.50034 26.31462,-5.55068 12.96938,-3.05033 23.92727,-5.2448 24.35088,-4.87662 0.85105,0.73974 -38.64222,147.38823 -44.56964,165.49832 -3.40996,10.41849 -4.48342,12.02411 -12.82677,19.18575 -5.00794,4.29862 -9.10384,8.71843 -9.10197,9.82177 0.005,3.09745 20.98248,39.67913 24.11931,42.06109 3.29829,2.50456 71.54167,28.96242 77.243,29.947 6.24575,1.0786 5.22274,1.82048 109.31653,-79.27617 38.78062,-30.21294 99.25674,-77.46076 134.39136,-104.99521 l 63.88115,-50.06258 -2.67112,-3.98507 c -4.98625,-7.43907 -27.60072,-31.04332 -38.18947,-39.86095 -5.79798,-4.82818 -16.62744,-11.89098 -24.06542,-15.6951 l -13.52365,-6.9166 -21.6754,3.40614 c -11.92149,1.87338 -22.42874,3.40743 -23.34947,3.40899 -1.87415,0.003 -2.16854,2.82976 5.98798,-57.49719 8.4724,-62.66335 9.94452,-77.27281 8.19008,-81.27903 -1.85319,-4.23169 -14.27868,-17.54316 -28.51335,-30.54642 l -10.47479,-9.56865 9.0372,-0.78995 c 4.97046,-0.43448 23.7501,-0.81487 41.73252,-0.84531 32.23688,-0.0546 32.726,-0.0132 34.88557,2.94898 3.22553,4.42435 15.62171,33.56656 66.06138,155.30372 46.29894,111.74345 63.24639,153.42934 65.04901,160.00198 1.27981,4.66639 0.2046,5.79143 -16.93337,17.71806 -17.44764,12.14211 -149.84352,99.95102 -221.24371,146.73546 -81.76063,53.57301 -75.48878,50.08681 -82.69432,45.96641 z"
       id="path3620"
       inkscape:connector-curvature="0" />
    <path
       style="opacity:1;fill:#e6e6e6;fill-opacity:1;stroke:#676a6a;stroke-width:2.32252049;stroke-linecap:round;stroke-miterlimit:4;stroke-dasharray:none;stroke-opacity:1"
       d="M 276.37958,988.8203 C 112.5463,893.53352 41.73708,851.02272 41.731874,847.94791 41.730149,846.9289 58.924534,795.63584 79.941618,733.96331 100.9587,672.29079 125.76125,599.515 135.05838,572.23935 l 16.90389,-49.59208 66.84867,-1.74851 c 110.50524,-2.89043 232.31051,-5.7584 232.63368,-5.47748 0.16683,0.14499 -6.71219,3.75146 -15.28668,8.01436 -8.57451,4.26289 -64.17498,33.54056 -123.55662,65.06146 l -107.9666,57.31076 -4.02029,10.00438 c -2.21116,5.5024 -7.31509,20.05429 -11.34207,32.33751 -6.09627,18.59503 -7.03449,22.88086 -5.60535,25.60534 1.18475,2.25856 7.18479,5.68012 19.36951,11.04557 l 17.65305,7.77338 23.91848,-5.18749 c 13.15514,-2.85311 24.24822,-4.90083 24.65129,-4.55049 1.1379,0.9891 -37.03617,143.68842 -43.69208,163.32621 -2.55529,7.53923 -4.7193,10.68476 -12.17756,17.70094 -4.98853,4.69283 -9.06806,9.71574 -9.06561,11.16202 0.002,1.44628 5.13656,11.52972 11.40912,22.40762 8.36371,14.50437 12.56294,20.36474 15.74858,21.97849 12.51235,6.33829 73.86558,29.08446 78.42868,29.07673 5.4039,-0.009 22.50934,-13.02274 219.97839,-167.35664 88.98074,-69.5438 86.48981,-67.54612 86.48674,-69.36118 -0.004,-2.09533 -12.62306,-16.59946 -27.31444,-31.3936 -12.85435,-12.94428 -25.00052,-21.96741 -41.00064,-30.45847 l -10.73938,-5.69924 -22.60335,3.37502 c -15.07625,2.25113 -22.60416,2.88732 -22.60581,1.9105 -0.001,-0.8055 2.34561,-18.91431 5.21548,-40.2418 7.42378,-55.16956 9.90635,-76.26604 10.18568,-86.55629 0.2282,-8.40751 -0.14036,-9.48624 -5.59344,-16.36783 -3.21077,-4.05193 -11.59641,-12.6846 -18.63479,-19.1837 l -12.79702,-11.81654 12.57916,-0.87552 c 18.77914,-1.30703 60.13341,-1.14761 64.3664,0.24813 2.99986,0.98913 5.24071,4.73087 11.79757,19.69942 16.72758,38.18714 101.07895,241.96072 114.89797,277.56708 l 8.26115,21.28595 -6.52501,5.44928 c -13.5742,11.33631 -286.87946,192.06746 -303.20794,200.50506 l -5.09705,2.6339 -91.18056,-53.0313 z"
       id="path3622"
       inkscape:connector-curvature="0" />
    <path
       style="opacity:1;fill:#e6e6e6;fill-opacity:1;stroke:#676a6a;stroke-width:1.63889515;stroke-linecap:round;stroke-miterlimit:4;stroke-dasharray:none;stroke-opacity:1"
       d="m 345.1773,804.72689 c 2.38536,-10.9382 4.55718,-20.10855 4.82627,-20.37855 0.50946,-0.51119 52.26866,-2.46545 52.74426,-1.99146 0.25975,0.25887 -59.68879,41.38527 -61.18125,41.97207 -0.39946,0.15707 1.22535,-8.66386 3.61072,-19.60206 z"
       id="path3874"
       inkscape:connector-curvature="0" />
    <path
       style="opacity:1;fill:#e6e6e6;fill-opacity:1;stroke:#676a6a;stroke-width:1.63889515;stroke-linecap:round;stroke-miterlimit:4;stroke-dasharray:none;stroke-opacity:1"
       d="m 343.93993,817.39115 c 0.38523,-2.45489 2.08836,-10.64879 3.78475,-18.20867 l 3.08432,-13.74522 12.75444,-0.67218 c 7.01494,-0.36971 17.92963,-0.6828 24.25486,-0.69576 l 11.50042,-0.0235 -2.56497,2.02466 c -1.41075,1.11356 -2.9933,2.02537 -3.51678,2.02625 -0.52349,8.9e-4 -2.72247,1.28125 -4.88663,2.84525 -2.16415,1.56401 -13.19942,9.15917 -24.52282,16.87815 l -20.58801,14.03452 0.70042,-4.46343 z"
       id="path3876"
       inkscape:connector-curvature="0" />
    <path
       style="opacity:1;fill:#e6e6e6;fill-opacity:1;stroke:#676a6a;stroke-width:1.63889515;stroke-linecap:round;stroke-miterlimit:4;stroke-dasharray:none;stroke-opacity:1"
       d="m 345.56388,816.99167 c -0.001,-0.88526 1.40264,-8.1315 3.1203,-16.10276 l 3.12301,-14.4932 21.15614,-0.77256 c 20.06363,-0.73267 24.77333,-0.48042 20.42366,1.09389 -1.05116,0.38045 -11.67313,7.36793 -23.60438,15.52775 -26.31695,17.99823 -24.21539,16.71858 -24.21873,14.74688 z"
       id="path3878"
       inkscape:connector-curvature="0" />
    <path
       style="opacity:1;fill:#e6e6e6;fill-opacity:1;stroke:#676a6a;stroke-width:1.63889515;stroke-linecap:round;stroke-miterlimit:4;stroke-dasharray:none;stroke-opacity:1"
       d="m 347.88842,811.86334 c 0.35016,-2.19613 1.59604,-8.59073 2.76864,-14.21022 l 2.13199,-10.21725 18.83737,-0.56318 c 10.36055,-0.30975 18.90965,-0.50107 18.99799,-0.42515 0.15031,0.12919 -33.60404,23.09847 -40.31252,27.43201 l -3.06012,1.97678 0.63665,-3.99299 z"
       id="path3880"
       inkscape:connector-curvature="0" />
    <path
       style="opacity:1;fill:#e6e6e6;fill-opacity:1;stroke:#676a6a;stroke-width:1.63889515;stroke-linecap:round;stroke-miterlimit:4;stroke-dasharray:none;stroke-opacity:1"
       d="m 363.58261,720.098 c -0.002,-1.35289 6.19185,-30.33794 6.58262,-30.80287 0.56377,-0.67077 36.03039,-9.389 36.45875,-8.96211 0.237,0.23621 -0.9975,7.99005 -2.74335,17.23076 -2.82747,14.96584 -3.40922,16.85803 -5.32511,17.32057 -9.42622,2.27574 -34.97144,6.08393 -34.97291,5.21365 z"
       id="path3882"
       inkscape:connector-curvature="0" />
    <path
       style="opacity:1;fill:#e6e6e6;fill-opacity:1;stroke:#676a6a;stroke-width:1.63889515;stroke-linecap:round;stroke-miterlimit:4;stroke-dasharray:none;stroke-opacity:1"
       d="m 365.58599,717.18016 c -0.008,-0.69446 1.225,-7.07185 2.73948,-14.17196 l 2.7536,-12.9093 3.54837,-0.95925 c 11.55034,-3.12245 29.62709,-7.13426 30.08588,-6.67703 0.88257,0.87958 -4.87017,29.69119 -6.13558,30.72904 -1.23009,1.00888 -25.62679,5.23873 -30.26093,5.24657 -1.49418,0.003 -2.72305,-0.5636 -2.73082,-1.25807 z"
       id="path3884"
       inkscape:connector-curvature="0" />
    <path
       style="opacity:1;fill:#e6e6e6;fill-opacity:1;stroke:#676a6a;stroke-width:1.63889515;stroke-linecap:round;stroke-miterlimit:4;stroke-dasharray:none;stroke-opacity:1"
       d="m 366.97504,715.66258 c 0.27646,-0.97274 1.52584,-6.88839 2.77644,-13.14589 l 2.2738,-11.37726 3.58115,-1.00428 c 7.13789,-2.0017 26.51614,-6.19479 27.26444,-5.89953 0.676,0.26674 -2.86626,21.03671 -4.43652,26.01334 -0.66838,2.11833 -4.48744,3.21115 -19.70656,5.63908 -12.12124,1.93373 -12.36504,1.92905 -11.75275,-0.22546 z"
       id="path3886"
       inkscape:connector-curvature="0" />
    <path
       style="opacity:1;fill:#000000;fill-opacity:1;stroke:#676a6a;stroke-width:1.63889515;stroke-linecap:round;stroke-miterlimit:4;stroke-dasharray:none;stroke-opacity:1"
       d="m 368.6236,715.01481 c -0.002,-0.61753 1.00611,-6.01951 2.23957,-12.00441 l 2.24265,-10.88162 3.5468,-1.00233 c 6.47245,-1.82911 24.23258,-5.41988 24.66676,-4.98718 0.70676,0.70438 -3.42467,22.46188 -4.51567,23.78099 -1.93769,2.34285 -28.17465,7.08609 -28.18011,5.09455 z"
       id="path3888"
       inkscape:connector-curvature="0" />
    <path
       style="opacity:1;fill:#000000;fill-opacity:1;stroke:#676a6a;stroke-width:1.63889515;stroke-linecap:round;stroke-miterlimit:4;stroke-dasharray:none;stroke-opacity:1"
       d="M 192.58643,938.01068 C 122.20686,896.94825 53.491982,855.51067 45.679135,849.42022 L 43.2266,847.50836 59.911632,798.12001 C 73.657621,757.43135 146.8072,542.5886 151.78215,528.29328 l 1.44097,-4.14059 28.99854,-0.7344 c 119.55097,-3.02768 200.58757,-5.00794 229.00081,-5.59601 l 33.33391,-0.68992 -30.78238,16.13513 C 383.00499,549.3956 248.51732,620.6305 219.00021,636.43451 l -15.63197,8.36964 -2.84433,6.9094 c -5.9053,14.34502 -18.79229,54.64398 -18.78534,58.74376 0.009,5.52504 2.65057,7.47242 22.45908,16.55923 l 15.46174,7.0928 23.22553,-4.73044 c 12.77404,-2.60174 23.52615,-4.72561 23.89358,-4.71971 0.36742,0.005 0.0118,2.85291 -0.78943,6.32667 -4.26281,18.47283 -33.56911,127.34801 -39.45919,146.59403 -4.28769,14.01009 -5.34629,15.87046 -14.80074,26.01084 -6.22473,6.67632 -8.43384,9.75499 -8.43047,11.74881 0.005,3.01509 7.34771,17.14503 16.38796,31.53657 3.27449,5.21281 5.82009,9.61181 5.65689,9.77558 -0.16322,0.16375 -14.9039,-8.2247 -32.75709,-18.64101 z"
       id="path3890"
       inkscape:connector-curvature="0" />
    <path
       style="opacity:1;fill:#000000;fill-opacity:1;stroke:#676a6a;stroke-width:1.63889515;stroke-linecap:round;stroke-miterlimit:4;stroke-dasharray:none;stroke-opacity:1"
       d="m 304.20631,1003.2037 c -34.34341,-20.01017 -62.28093,-36.5443 -62.08337,-36.74252 0.19755,-0.19823 5.77107,1.72899 12.38561,4.28271 17.44145,6.73373 43.44956,16.05897 50.21967,18.00631 5.67621,1.63269 5.9671,1.62025 9.87007,-0.42251 9.32012,-4.878 33.26059,-23.1806 174.97613,-133.76999 113.46196,-88.54138 126.3429,-98.74351 127.9587,-101.34762 1.33789,-2.15621 -3.25296,-8.32134 -17.9579,-24.11593 -18.26225,-19.61551 -33.70342,-31.73598 -53.82808,-42.25202 l -8.20046,-4.28512 -17.81535,2.67521 c -9.79844,1.47136 -19.68348,2.67837 -21.96675,2.68223 -4.13024,0.007 -4.14847,-0.01 -3.57191,-3.27695 0.87772,-4.97383 11.40121,-86.30635 13.10497,-101.28394 0.82137,-7.22058 1.48721,-16.79231 1.47962,-21.2705 -0.0124,-7.33725 -0.322,-8.63554 -3.13155,-13.13289 -1.71478,-2.7449 -9.42641,-11.16266 -17.13695,-18.70612 l -14.01916,-13.7154 11.29575,-0.67009 c 14.22535,-0.84389 51.06603,-0.78766 57.76412,0.0882 4.99473,0.65309 5.09112,0.73445 8.51874,7.19097 9.2606,17.4439 127.91286,304.35613 127.86946,309.20029 -0.0224,2.49799 -36.12755,27.31797 -133.67666,91.89412 -121.99875,80.7615 -175.89053,115.5415 -178.80427,115.3944 -0.44431,-0.022 -28.90701,-16.4127 -63.25043,-36.4228 z"
       id="path3892"
       inkscape:connector-curvature="0" />
    <path
       style="opacity:1;fill:#000000;fill-opacity:1;stroke:#676a6a;stroke-width:1.63889515;stroke-linecap:round;stroke-miterlimit:4;stroke-dasharray:none;stroke-opacity:1"
       d="m 349.59392,811.21117 c -0.002,-0.72726 0.96194,-6.21055 2.14134,-12.18509 l 2.14436,-10.86278 16.02076,-0.0271 c 8.81142,-0.0149 16.02108,0.16027 16.02147,0.38929 0.001,0.64659 -12.39505,9.28274 -14.3582,10.00306 -0.96091,0.35259 -5.72888,3.31159 -10.59548,6.57557 -11.58824,7.77211 -11.37071,7.65531 -11.37425,6.10708 z"
       id="path3894"
       inkscape:connector-curvature="0" />
    <path
       style="opacity:1;fill:#cccccc;fill-opacity:1;stroke:#676a6a;stroke-width:1.63889515;stroke-linecap:round;stroke-miterlimit:4;stroke-dasharray:none;stroke-opacity:1"
       d="M 216.18462,963.4466 C 132.68948,914.33346 63.995476,873.55099 63.531264,872.81891 c -0.464212,-0.73209 -0.850984,-0.90326 -0.859491,-0.38039 -0.0085,0.52288 -0.682864,0.0683 -1.498572,-1.01015 -0.815706,-1.07846 -1.497559,-1.61991 -1.515228,-1.20322 -0.01767,0.41668 -0.930953,-0.14121 -2.02952,-1.23978 -1.222219,-1.22222 -2.658646,-1.74365 -3.701245,-1.34357 -1.115102,0.4279 -1.46229,0.26298 -1.004771,-0.4773 0.393685,-0.637 -0.306179,-1.66206 -1.602056,-2.34647 C 49.467958,863.83968 31.59712,852.21032 30.558741,851.30748 30.34248,851.11945 129.06723,562.18923 142.61408,523.36363 l 3.04007,-8.71295 22.8983,-0.66959 c 48.84028,-1.42819 360.86054,-8.71218 370.89586,-8.65841 5.83363,0.0312 12.19759,-0.21372 14.14213,-0.54437 l 3.53553,-0.6012 63.63962,153.76203 c 35.00178,84.56913 63.57647,154.37248 63.49931,155.11855 -0.0772,0.74609 0.24949,1.35653 0.72591,1.35653 0.47641,0 0.57594,0.75642 0.22117,1.68093 -0.47137,1.2284 -0.28065,1.45574 0.70844,0.84445 0.94572,-0.58448 1.18592,-0.39984 0.79731,0.61287 -0.3059,0.79715 0.95512,5.96156 2.80225,11.47645 l 3.35844,10.02708 -5.24677,3.54334 c -36.0102,24.31903 -301.54055,199.39466 -302.44068,199.41216 -0.67057,0.013 -1.46285,0.6587 -1.76062,1.4347 -0.29779,0.7759 -0.95157,1.1574 -1.45286,0.8475 -0.50129,-0.3098 -1.18315,0.1448 -1.51522,1.0102 -0.33209,0.8654 -1.06157,1.2905 -1.62109,0.9447 -0.5595,-0.3458 -1.01728,-0.1205 -1.01728,0.5007 0,0.6212 -0.45778,0.8465 -1.01729,0.5007 -0.55951,-0.3458 -1.28899,0.079 -1.62108,0.9447 -0.33208,0.8654 -0.95729,1.355 -1.38936,1.0879 -0.43206,-0.267 -1.91432,0.4024 -3.2939,1.4876 l -2.50832,1.973 -151.80933,-89.2966 z m 153.28448,85.7229 c -0.33567,-0.3357 -1.20693,-0.3716 -1.93613,-0.08 -0.80583,0.3224 -0.56647,0.5618 0.6103,0.6102 1.06487,0.044 1.66149,-0.1948 1.32583,-0.5305 l 0,0 z m 0.72043,-5.3565 c 0.31135,-0.5037 -0.34368,-0.678 -1.45561,-0.3872 -2.3587,0.6168 -2.65685,1.3032 -0.56609,1.3032 0.80059,0 1.71035,-0.4122 2.0217,-0.916 z m -2.06818,-4.3064 c -0.50818,-0.8223 -0.15154,-0.9597 1.17228,-0.4517 1.04648,0.4016 1.57852,0.4059 1.1823,0.01 -1.05221,-1.0522 3.1014,-3.6735 4.47536,-2.8244 0.77416,0.4785 0.8873,0.2713 0.33759,-0.6182 -0.60539,-0.9796 -0.36259,-1.1597 0.90654,-0.6727 1.02963,0.3951 1.48283,0.2597 1.11625,-0.3334 -0.56608,-0.916 0.82338,-1.447 2.86016,-1.0932 0.45798,0.08 0.54479,-0.3212 0.19292,-0.8905 -0.58514,-0.9468 0.77456,-1.4882 2.83753,-1.1298 0.45799,0.08 0.56503,-0.2885 0.23787,-0.8178 -0.58358,-0.9443 3.1763,-2.7357 4.8129,-2.2932 0.45798,0.1239 0.59634,-0.1573 0.30747,-0.6247 -0.28888,-0.4674 0.9274,-1.7002 2.70283,-2.7396 16.14142,-9.4495 197.69887,-128.7648 248.12951,-163.0649 14.13408,-9.6132 26.40744,-17.59968 27.27412,-17.74773 0.86668,-0.14804 1.46213,-0.77699 1.32324,-1.39767 -0.1389,-0.62068 0.20203,-1.18532 0.75761,-1.25477 0.55559,-0.0695 1.57836,-0.20375 2.27284,-0.29845 0.69448,-0.0947 1.13047,-0.7755 0.96885,-1.51289 -0.1787,-0.81533 0.28716,-1.11775 1.18883,-0.77174 1.6069,0.61663 4.05561,-1.59979 2.96851,-2.68689 -0.36558,-0.36557 -0.13435,-0.7215 0.51383,-0.79094 0.64818,-0.0695 1.7405,-0.18309 2.42737,-0.25254 0.68687,-0.0695 1.41242,-0.9756 1.61234,-2.01367 0.20395,-1.05906 -0.0751,-1.61629 -0.63602,-1.26967 -0.54974,0.33974 -1.30941,-0.61704 -1.68819,-2.1262 -1.67718,-6.68241 -47.08164,-118.54144 -87.80707,-216.32266 -11.42613,-27.43401 -20.48396,-50.38972 -20.12849,-51.01271 0.35548,-0.62298 0.26282,-0.7842 -0.2059,-0.35826 -1.07865,0.9802 -3.73042,-5.16014 -2.84627,-6.59072 0.38358,-0.62066 0.17169,-0.76238 -0.50996,-0.3411 -1.08284,0.66924 -1.56389,-0.72963 -1.43941,-4.18581 0.0247,-0.6885 -0.43541,-0.95486 -1.02268,-0.59191 -0.69042,0.4267 -0.80974,-0.0125 -0.33765,-1.24277 0.40158,-1.04648 0.3955,-1.56804 -0.0135,-1.15904 -0.99137,0.99137 -3.57729,-5.26303 -2.73771,-6.6215 0.38359,-0.62066 0.1717,-0.76239 -0.50995,-0.3411 -1.08285,0.66923 -1.56389,-0.72964 -1.43942,-4.18582 0.0248,-0.6885 -0.35816,-1.0026 -0.85101,-0.698 -0.8515,0.52625 -1.06817,0.0516 -1.30017,-2.8484 -0.0556,-0.69448 -0.69537,-1.88952 -1.4218,-2.65563 -0.72643,-0.76612 -1.07257,-2.03979 -0.76918,-2.83039 0.34963,-0.91113 0.12312,-1.17263 -0.61865,-0.71419 -0.78864,0.48741 -0.95334,0.158 -0.50507,-1.01015 0.44826,-1.16816 0.28356,-1.49756 -0.50508,-1.01016 -0.78865,0.48741 -0.95334,0.15801 -0.50508,-1.01015 0.36584,-0.95337 0.28228,-1.49676 -0.1857,-1.20754 -0.81276,0.50232 -3.67288,-4.25743 -3.37742,-5.62063 0.078,-0.35971 -0.86549,-0.43392 -2.09656,-0.16491 -1.35597,0.29629 -1.77812,0.1559 -1.0709,-0.35614 0.64207,-0.46489 -14.53617,-0.74354 -33.72941,-0.61923 -19.19325,0.12431 -35.12817,0.45737 -35.41093,0.74013 -0.28276,0.28277 5.90018,7.09692 13.73988,15.14258 7.8397,8.04565 15.24395,16.56894 16.4539,18.94063 3.77852,7.40651 2.38362,23.40845 -10.24113,117.48368 -1.11838,8.33376 -2.13555,16.06143 -2.26038,17.17259 -0.12483,1.11117 -0.68153,2.35926 -1.23712,2.77354 -0.55558,0.41427 0.69358,0.64156 2.7759,0.50507 2.08232,-0.13648 3.78695,-0.58908 3.78808,-1.00576 0.001,-0.41669 1.0248,-0.74615 2.27486,-0.73213 1.25006,0.014 9.66612,-0.98946 18.70234,-2.22995 l 16.4295,-2.25545 6.80401,3.32776 c 10.1121,4.94571 27.81047,17.07481 38.16976,26.15862 9.61356,8.42991 27.85131,28.00507 32.96808,35.3857 1.65815,2.39179 2.78979,4.93515 2.51475,5.65189 -0.99156,2.58398 -9.65402,9.45794 -124.93235,99.13826 -143.06123,111.29391 -175.73009,136.02505 -181.64459,137.5095 -2.81867,0.70744 -14.15479,-2.90827 -43.93135,-14.01211 -10.44986,-3.8968 -19.24874,-6.83611 -19.55307,-6.53177 -0.75382,0.75381 -3.27052,-1.66214 -2.70495,-2.59666 0.24834,-0.41032 -0.32852,-0.4467 -1.28189,-0.0809 -1.06787,0.40979 -1.48645,0.26559 -1.09019,-0.37556 0.37014,-0.59891 -1.99518,-2.06554 -5.57155,-3.45466 -3.41812,-1.32766 -7.68682,-3.86914 -9.48602,-5.64773 -2.49146,-2.46294 -3.51752,-2.93707 -4.30437,-1.98897 -0.77514,0.93399 2.03262,3.00277 11.24392,8.28458 6.75239,3.87184 12.90773,6.89567 13.67855,6.71962 0.8002,-0.18276 1.10908,0.15301 0.71995,0.78264 -0.37483,0.60651 -0.30681,1.00142 0.15117,0.87758 1.45385,-0.39312 5.42761,1.29854 4.93242,2.09978 -0.26142,0.42299 0.0729,0.77051 0.74294,0.77227 0.67004,0.002 19.85557,10.92351 42.63451,24.27056 22.77894,13.34705 46.75744,27.34565 53.28555,31.10815 6.52811,3.7625 11.86929,7.2622 11.86929,7.7772 0,0.5151 0.40694,0.6849 0.90431,0.3776 0.49736,-0.3074 1.16495,0.1203 1.48352,0.9505 0.31857,0.8302 1.30217,1.5094 2.18577,1.5094 0.96937,0 1.31686,-0.4687 0.87614,-1.1818 l 2e-5,-3e-4 z m -0.62009,-101.04592 c 102.95695,-80.23296 133.34632,-103.90403 185.07903,-144.16283 28.05699,-21.83417 51.87271,-40.52255 52.92382,-41.52974 2.39002,-2.29014 3.29427,-1.05326 -17.80767,-24.35841 l -15.89654,-17.55628 -17.91522,-9.89845 -17.91521,-9.89846 -23.76694,4.17335 c -13.07181,2.29533 -24.78971,4.41697 -26.03977,4.71474 -1.31562,0.31338 -2.27284,0.0698 -2.27284,-0.57826 0,-0.61582 0.61881,-1.11966 1.37515,-1.11966 0.95203,0 1.21341,-0.84604 0.8495,-2.74969 -0.47189,-2.46859 -0.60521,-2.54604 -1.30414,-0.75761 -0.77016,1.97068 -0.78043,1.97038 -0.95656,-0.0283 -0.33076,-3.75337 0.1899,-7.95932 9.12291,-73.6964 l 8.91645,-65.61514 -18.79875,-19.23763 c -10.3393,-10.58069 -19.39102,-19.17437 -20.1149,-19.09707 -1.74059,0.18589 -251.00087,132.55725 -252.43699,134.05837 -0.90806,0.94916 -19.82775,54.59902 -20.81983,59.03799 -0.1821,0.81482 5.61072,3.99421 15.36505,8.4331 8.61155,3.91884 16.11194,7.13476 16.66752,7.14649 0.55558,0.0117 13.83965,-3.21496 29.52013,-7.17041 15.68049,-3.95545 28.68602,-7.19173 28.90118,-7.19173 1.53009,0 -3.1532,18.25337 -25.1795,98.13868 l -24.97028,90.56255 -10.126,6.91717 c -5.5693,3.80446 -10.0904,7.37175 -10.04688,7.92734 0.0435,0.55558 5.23924,9.25681 11.54607,19.33607 l 11.46696,18.32594 37.37564,15.22027 c 20.55661,8.37115 37.958,15.2389 38.66976,15.26165 0.71177,0.0227 27.07675,-20.05069 58.58885,-44.60765 z m -144.2307,15.73413 c 0,-0.27778 -2.93581,-5.4509 -6.52401,-11.49582 -8.74939,-14.7398 -13.67904,-24.68706 -13.67904,-27.60216 0,-1.55278 2.84521,-5.68603 8.03913,-11.67846 4.42151,-5.10128 8.39028,-9.3723 8.81948,-9.49113 0.4292,-0.11882 0.83347,-0.67062 0.89838,-1.2262 0.065,-0.55558 0.18727,-1.60519 0.2719,-2.33246 0.0847,-0.72727 0.60322,-1.04458 1.15244,-0.70515 0.59314,0.36659 0.72851,-0.0867 0.33341,-1.11625 -0.48701,-1.26913 -0.30683,-1.51193 0.67272,-0.90654 0.86384,0.53389 1.09586,0.43525 0.65481,-0.27839 -0.37569,-0.60789 0.94491,-6.47386 2.93468,-13.03552 10.5362,-34.74521 40.42862,-147.56654 39.37693,-148.61823 -0.34569,-0.34568 -10.98062,1.4291 -23.63321,3.94396 -12.65258,2.51487 -23.54163,4.3935 -24.19791,4.17474 -0.65627,-0.21876 -0.89286,-0.88371 -0.52576,-1.47769 0.39451,-0.63835 0.19052,-0.78519 -0.49888,-0.35912 -1.34439,0.83087 -27.15465,-11.31015 -32.15997,-15.12789 -4.39477,-3.35206 -4.36211,-6.06566 0.25676,-21.33507 4.78201,-15.80875 14.35978,-43.32831 16.67334,-47.90708 2.00209,-3.96234 11.61112,-9.17706 176.69829,-95.89221 34.16841,-17.9476 62.31379,-32.77974 62.54528,-32.96031 1.71835,-1.34036 8.11998,-1.44519 -188.53952,3.08757 -54.01827,1.24505 -98.48176,2.53046 -98.80775,2.85645 -1.0071,1.0071 -110.892934,322.11489 -110.357002,322.48463 0.161383,0.11134 2.338983,1.61498 4.839111,3.34141 2.500127,1.72643 8.511164,5.60533 13.357859,8.61976 4.846695,3.01444 8.483244,5.80973 8.08122,6.21175 -0.402023,0.40202 -0.276384,0.63925 0.2792,0.52715 2.255467,-0.45504 3.614021,0.10137 2.933997,1.20168 -0.446176,0.72193 -0.277143,0.89206 0.443688,0.44656 1.398698,-0.86445 5.517979,1.78174 4.444572,2.85514 -0.413154,0.41316 -0.29662,0.62325 0.258964,0.46688 1.880258,-0.52922 5.592772,1.25927 4.909352,2.36506 -0.3717,0.60143 -0.22442,0.81452 0.32729,0.47355 1.09079,-0.67415 18.825589,9.74896 17.997209,10.57733 -0.27798,0.27799 0.0678,0.50543 0.76838,0.50543 0.70059,0 14.22401,7.70864 30.05204,17.13031 15.82803,9.42166 41.56877,24.61183 57.20164,33.75593 15.63287,9.14409 28.22354,16.96135 27.97926,17.37167 -0.24426,0.41032 0.33591,0.44671 1.28928,0.0809 1.00392,-0.38524 1.48056,-0.25606 1.13259,0.30696 -0.33044,0.53466 0.27685,1.03823 1.34953,1.11903 1.07268,0.0808 1.95032,-0.0804 1.95032,-0.35814 l 0,-4e-5 z m 1.04026,-57.00434 c 1.53502,-2.8682 0.488,-2.40017 -1.53394,0.6857 -0.9549,1.45737 -1.23691,2.34119 -0.62668,1.96405 0.61022,-0.37714 1.5825,-1.56952 2.16062,-2.64975 z m 5.30922,-5.67501 c 0.9667,-3.68576 1.6293,-6.82973 1.47243,-6.98658 -0.15686,-0.15687 -1.43487,3.04566 -2.84001,7.11671 -1.40514,4.07107 -2.06773,7.21503 -1.47243,6.98659 0.59531,-0.22844 1.87332,-3.43097 2.84001,-7.11672 z M 35.881657,851.78367 c -1.008675,-1.11457 -2.068723,-1.79173 -2.355662,-1.50479 -0.286939,0.28694 0.354247,1.1844 1.424856,1.99437 2.731537,2.06653 3.078774,1.8839 0.930806,-0.48958 z m 11.066775,1.25375 c -5.258218,-4.23413 -6.032648,-4.70971 -3.265213,-2.00517 1.563385,1.52785 3.153545,2.77792 3.533689,2.77792 0.380142,0 0.259329,-0.34774 -0.268476,-0.77275 z M 689.96103,837.40474 c 0,-1.21797 -0.56258,-0.91831 -2.62135,1.39623 -1.91749,2.15571 -1.91626,2.15844 0.34851,0.76717 1.25007,-0.76793 2.27284,-1.74146 2.27284,-2.1634 z m -2.11867,-2.2124 c -0.26575,-0.26575 -1.08498,0.51891 -1.82053,1.74371 -1.27776,2.1277 -1.25623,2.14923 0.48319,0.48319 1.00129,-0.95905 1.60309,-1.96115 1.33734,-2.2269 z m -3.14648,-0.71317 c -0.25219,-0.75655 -0.71008,-0.29865 -1.06728,1.06728 -0.43939,1.68024 -0.30792,2.07463 0.44168,1.32503 0.587,-0.587 0.86852,-1.66354 0.6256,-2.39231 z M 271.12319,723.27486 c 0.50004,-2.08529 0.32622,-2.62305 -0.71829,-2.22223 -0.85458,0.32792 -1.19519,1.4849 -0.89677,3.04602 0.56295,2.94484 0.73206,2.85858 1.61506,-0.82379 z m -2.39577,1.23578 c 0,-0.55558 -0.48139,-1.01015 -1.06977,-1.01015 -0.58837,0 -0.78883,0.45457 -0.44546,1.01015 0.34338,0.55559 0.82477,1.01015 1.06978,1.01015 0.245,0 0.44545,-0.45456 0.44545,-1.01015 z m 5.298,-3.53553 c 0.30204,-1.57998 0.0204,-2.52538 -0.75231,-2.52538 -0.77271,0 -1.05435,0.9454 -0.75231,2.52538 0.26552,1.38896 0.60405,2.52538 0.75231,2.52538 0.14826,0 0.48679,-1.13642 0.75231,-2.52538 z m 3.79338,-3.53554 c 0.86298,-1.6125 0.76821,-2.0203 -0.46954,-2.0203 -0.87733,0 -1.55077,0.87734 -1.55077,2.0203 0,1.11117 0.21129,2.02031 0.46954,2.02031 0.25825,0 0.95609,-0.90914 1.55077,-2.02031 z m 209.79162,-24.43306 c -0.32246,-0.80583 -0.56183,-0.56647 -0.6103,0.6103 -0.0438,1.06487 0.19489,1.66149 0.53056,1.32583 0.33566,-0.33567 0.37154,-1.20693 0.0797,-1.93613 l 4e-5,0 z m 2.03028,-2.56929 c -0.25611,-0.98285 -0.48251,-0.42329 -0.50309,1.24346 -0.0206,1.66676 0.18896,2.4709 0.46567,1.78699 0.2767,-0.6839 0.29354,-2.0476 0.0375,-3.03045 l -5e-5,0 z m 5.36089,1.36128 c 0,-0.21299 -0.90913,-0.625 -2.0203,-0.91558 -1.11117,-0.29058 -2.02031,-0.11631 -2.02031,0.38726 0,0.50357 0.90914,0.91558 2.02031,0.91558 1.11117,0 2.0203,-0.17427 2.0203,-0.38726 z m 61.91514,-177.02199 c -1.70796,-3.69036 -3.37152,-5.71984 -4.0953,-4.99607 -0.39872,0.39872 5.20011,9.56237 5.61053,9.1828 0.16271,-0.15047 -0.51915,-2.0345 -1.51523,-4.18673 z m -109.39231,2.03971 c 0,-0.21835 -0.68185,-0.397 -1.51522,-0.397 -0.83338,0 -1.51523,0.4403 -1.51523,0.97845 0,0.53814 0.68185,0.7168 1.51523,0.397 0.83337,-0.3198 1.51522,-0.7601 1.51522,-0.97845 z m 105.05587,0.23176 c 0,-0.20976 -0.7955,-1.00526 -1.76777,-1.76776 -1.60216,-1.2565 -1.63789,-1.22077 -0.38139,0.38138 1.31963,1.68266 2.14916,2.21777 2.14916,1.38638 z m -97.47972,-1.63891 c 0.36029,-0.58296 -0.57569,-1.00362 -2.21323,-0.99469 -2.20325,0.012 -2.49883,0.23436 -1.32231,0.99469 1.9408,1.25423 2.76038,1.25423 3.53554,0 z m 11.15892,-0.93371 c -0.31738,-0.51353 0.224,-1.14266 1.20308,-1.39805 0.97907,-0.25539 -0.15178,-0.51707 -2.51301,-0.58152 -4.75147,-0.12969 -5.89711,1.52595 -1.51523,2.18975 1.52785,0.23145 2.91839,0.48893 3.09007,0.57217 0.17169,0.0832 0.0525,-0.26881 -0.26491,-0.78235 z m 85.81572,-2.09675 c -0.34337,-0.55559 -2.07483,-0.95637 -3.84769,-0.89064 l -3.22338,0.11952 3.03046,0.77112 c 4.39328,1.1179 4.73152,1.1179 4.04061,0 z m 1.76777,-4.75351 c -1.25006,-0.24077 -3.29562,-0.24077 -4.54569,0 -1.25006,0.24077 -0.22728,0.43777 2.27285,0.43777 2.50012,0 3.5229,-0.197 2.27284,-0.43777 z"
       id="path3898"
       inkscape:connector-curvature="0" />
    <path
       style="opacity:1;fill:#cccccc;fill-opacity:1;stroke:#676a6a;stroke-width:1.63889515;stroke-linecap:round;stroke-miterlimit:4;stroke-dasharray:none;stroke-opacity:1"
       d="m 351.48211,808.52123 c -0.002,-0.75837 0.71888,-5.35756 1.60287,-10.22042 l 1.60726,-8.84158 14.20553,-0.0241 c 7.81304,-0.0132 14.01644,0.15913 13.78532,0.38301 -0.23111,0.22388 -6.09622,4.00782 -13.03358,8.40874 -6.93736,4.40093 -13.86205,8.82777 -15.3882,9.83743 -2.12449,1.40551 -2.77584,1.51258 -2.7792,0.45687 z"
       id="path3946"
       inkscape:connector-curvature="0" />
    <path
       style="opacity:1;fill:#cccccc;fill-opacity:1;stroke:#676a6a;stroke-width:1.63889515;stroke-linecap:round;stroke-miterlimit:4;stroke-dasharray:none;stroke-opacity:1"
       d="m 370.56046,712.34462 c 0.0233,-1.21518 0.82845,-6.06723 1.78911,-10.78233 l 1.74664,-8.57293 9.27012,-2.16776 c 15.53681,-3.63317 16.40358,-3.69285 16.38001,-1.12784 -0.0399,4.35078 -3.73013,19.112 -4.97011,19.88125 -1.31497,0.81578 -13.88375,3.55322 -20.47103,4.45853 -3.38795,0.46562 -3.78272,0.28757 -3.74474,-1.68892 z"
       id="path3948"
       inkscape:connector-curvature="0" />
    <path
       style="opacity:1;fill:#f9f9f9;fill-opacity:1;stroke:#676a6a;stroke-width:0.57943696;stroke-linecap:round;stroke-miterlimit:4;stroke-dasharray:none;stroke-opacity:1"
       d="m 363.08022,719.93242 c 0.01,-0.44198 1.49529,-7.63646 3.30118,-15.98775 l 3.28344,-15.18415 18.00334,-4.56605 c 9.90182,-2.51133 18.36505,-4.49135 18.80717,-4.40004 0.54514,0.11257 0.80299,0.42244 0.80119,0.96278 -0.006,1.72904 -5.97313,32.01488 -6.51554,33.06814 -0.31812,0.61775 -0.93696,1.20586 -1.37519,1.30689 -4.50511,1.03868 -32.14878,5.59672 -33.96169,5.59979 -2.21669,0.004 -2.36057,-0.0453 -2.3439,-0.79961 z m 4.94966,-0.86226 c 0.0818,-0.0706 -0.27997,-0.12779 -0.80378,-0.1269 -0.52381,8.9e-4 -1.26093,-0.3059 -1.63806,-0.68175 -0.78526,-0.78261 -1.10224,-0.62112 -1.10024,0.56051 0.001,0.77907 0.0988,0.81359 1.69745,0.60157 0.93282,-0.12371 1.76291,-0.28275 1.84463,-0.35343 z m 3.41786,-2.81399 c 0.19632,-0.0667 -0.31463,-0.13297 -1.13545,-0.14708 -0.82081,-0.0141 -1.7281,-0.26059 -2.0162,-0.54771 -0.45989,-0.45834 -0.54537,-0.43893 -0.70068,0.15908 -0.0973,0.37462 -0.10756,0.7502 -0.0228,0.83465 0.15766,0.15713 3.23148,-0.08 3.87515,-0.29894 z m -1.28988,-2.40716 c -0.61691,-1.18085 -0.6805,-1.19468 -0.67872,-0.14766 0.001,0.61816 0.19401,0.95205 0.54989,0.95145 0.45436,-7.7e-4 0.47643,-0.13845 0.12883,-0.80379 z m 10.39031,-1.57304 c 7.77925,-1.43616 13.30883,-2.90383 13.96361,-3.70627 1.16267,-1.42486 4.73933,-16.32716 4.4995,-18.74736 -0.10942,-1.10421 -0.12241,-1.11078 -2.03035,-1.02621 -1.80568,0.0801 -18.36489,3.6456 -21.09908,4.54309 l -1.25791,0.41291 -1.48872,7.46526 c -0.8188,4.10589 -1.59767,8.59041 -1.73082,9.96559 l -0.24211,2.50033 2.28297,-0.25877 c 1.25563,-0.14231 4.45194,-0.65917 7.10291,-1.14857 z m 17.65507,0.16695 c 0.6636,-0.65105 -0.006,-0.5984 -1.22603,0.0964 -1.2468,0.70991 -1.24708,0.71066 -0.17778,0.47056 0.58906,-0.13227 1.22077,-0.3874 1.40381,-0.56697 z m -1.5677,-1.2372 c 0.57902,-0.30067 1.05246,-0.72816 1.05208,-0.94999 -4.2e-4,-0.2472 -0.24226,-0.19346 -0.62476,0.1388 -0.34325,0.29818 -0.94521,0.72101 -1.33769,0.93962 -1.08952,0.60687 -0.28786,0.49377 0.91037,-0.12843 z m 0.10421,-2.94545 c 0.11626,-0.53597 0.30622,-1.37644 0.42215,-1.86771 0.11594,-0.49127 -0.19993,0.0717 -0.70191,1.25119 -1.06238,2.49606 -1.0718,2.54056 -0.42358,2.00073 0.27058,-0.22535 0.58709,-0.84823 0.70334,-1.38421 z m 3.78565,-21.25932 c -0.14109,-0.15306 -0.64512,-0.12222 -1.12006,0.0685 -0.63935,0.25681 -0.69836,0.35245 -0.22728,0.36841 0.34994,0.0119 0.74013,0.29089 0.86708,0.62006 0.20626,0.53479 0.25776,0.52521 0.4838,-0.0901 0.13913,-0.37872 0.13755,-0.81384 -0.004,-0.96691 l -1.2e-4,0 z m 3.08376,-0.52325 c -0.0912,-0.34733 -0.17085,-0.14936 -0.17713,0.43994 -0.006,0.58929 0.0683,0.87347 0.16571,0.63151 0.0974,-0.24196 0.10255,-0.72412 0.0114,-1.07145 l 1e-5,0 z m -1.32029,-0.80813 c -8.4e-4,-0.49535 -0.23931,-0.71388 -0.77799,-0.71297 -0.76692,0.001 -0.76805,0.0103 -0.0881,0.69321 0.87022,0.87431 0.86754,0.87425 0.8661,0.0197 z m -2.23995,-0.21199 c -0.11888,-0.11847 -0.42694,-0.13063 -0.68457,-0.027 -0.28471,0.11449 -0.19995,0.19897 0.21614,0.21541 0.37651,0.0149 0.5873,-0.0699 0.46843,-0.18838 z m 4.02354,-1.04103 c -0.002,-1.04188 -0.13026,-1.24978 -0.77176,-1.2487 -0.72298,0.001 -0.73374,0.0408 -0.17746,0.65343 0.32569,0.35866 0.59263,0.9207 0.59318,1.24899 5.6e-4,0.32828 0.0814,0.59675 0.17958,0.59658 0.0982,-1.7e-4 0.17762,-0.5628 0.17646,-1.2503 z m 1.69987,-3.23801 c -0.0739,-0.0737 -0.60818,-0.006 -1.18734,0.15088 l -1.05299,0.28476 0.98256,0.24607 c 0.56104,0.1405 1.00597,0.51124 1.03712,0.86416 0.03,0.33996 0.12216,0.16134 0.20477,-0.39694 0.0827,-0.55827 0.0898,-1.0753 0.0159,-1.14893 z m -2.87232,0.70278 c -0.11888,-0.11847 -0.42693,-0.13064 -0.68456,-0.027 -0.28472,0.11449 -0.19995,0.19898 0.21613,0.2154 0.37652,0.0149 0.58731,-0.0699 0.46843,-0.18837 z"
       id="path3954"
       inkscape:connector-curvature="0" />
    <path
       style="opacity:1;fill:#000000;fill-opacity:1;stroke:#676a6a;stroke-width:0.57943696;stroke-linecap:round;stroke-miterlimit:4;stroke-dasharray:none;stroke-opacity:1"
       d="m 340.97001,824.53361 c -0.32238,-0.83586 -0.11656,-1.91193 4.03676,-21.10507 2.16663,-10.01233 3.97767,-18.42325 4.02452,-18.69094 0.12377,-0.70698 0.85268,-1.00673 3.06595,-1.2608 3.14999,-0.3616 49.99813,-1.78312 50.76727,-1.54045 0.38415,0.12121 0.64967,0.36465 0.59005,0.54098 -0.0873,0.25802 -61.90848,42.58099 -62.19884,42.58148 -0.0457,8e-5 -0.17429,-0.23626 -0.28571,-0.5252 z m 4.63288,-5.08473 c 0.90239,-0.59346 0.90529,-0.60902 0.16451,-0.88163 -0.50162,-0.1846 -0.7688,-0.61016 -0.79803,-1.27109 l -0.044,-0.99357 -0.27082,1.07189 c -0.33501,1.32593 -0.41658,2.67927 -0.16147,2.67884 0.10513,-1.8e-4 0.60451,-0.27217 1.10974,-0.60444 z m 4.58024,-6.33196 c 0.70476,-0.54508 0.70354,-0.55185 -0.10174,-0.56171 -0.50486,-0.006 -0.93856,-0.31562 -1.13946,-0.813 -0.21885,-0.54182 -0.3314,-0.61423 -0.34601,-0.22264 -0.012,0.31923 -0.12489,1.10119 -0.25107,1.73769 -0.20955,1.05699 -0.17073,1.12496 0.44775,0.78434 0.37245,-0.20512 0.99818,-0.62123 1.39053,-0.92468 z m 1.33488,-3.44496 c -0.77596,-0.75384 -1.1631,-0.566 -1.16119,0.56341 0.001,0.79249 0.0755,0.83022 0.89505,0.45515 0.85003,-0.38903 0.863,-0.4387 0.26614,-1.01856 z m 15.32461,-10.45325 13.60976,-8.6906 -2.11839,-0.2255 c -1.16513,-0.12403 -6.80848,-0.23502 -12.54081,-0.24663 -9.63937,-0.0196 -10.43573,0.0257 -10.59968,0.60418 -0.14901,0.52564 -2.27309,12.56204 -2.90849,16.48139 -0.16317,1.00651 -0.10023,1.17198 0.37594,0.98834 0.31456,-0.12133 6.69632,-4.13136 14.18167,-8.91118 z m 17.05019,-9.94643 c -3.3e-4,-0.19642 -0.25116,-0.35671 -0.55739,-0.35619 -0.30624,5.2e-4 -0.4572,0.16149 -0.33547,0.35771 0.12173,0.19622 0.37256,0.35652 0.5574,0.3562 0.18483,-3.1e-4 0.33579,-0.16129 0.33546,-0.35772 z m 4.28232,-2.01261 c -1.3e-4,-0.0756 -1.72788,-0.11382 -3.83944,-0.0849 l -3.83921,0.0526 2.67914,0.32822 c 1.47352,0.18051 2.82156,0.46844 2.99564,0.63983 0.27358,0.26933 2.00454,-0.53895 2.00387,-0.93573 z m 1.97542,0.49673 c 0.15578,0.14014 0.16727,0.0541 0.0256,-0.19118 -0.36651,-0.63438 -1.64427,-0.553 -1.64316,0.10464 7.2e-4,0.42475 0.15114,0.46755 0.66766,0.19 0.36669,-0.19704 0.79416,-0.24361 0.94993,-0.10346 z m 1.57798,-1.6484 c -0.6305,-0.0623 -1.32651,0.0774 -1.54667,0.31062 -0.30571,0.3238 -0.19009,0.35977 0.48931,0.15224 0.82784,-0.25287 0.85267,-0.22629 0.35778,0.38293 -0.4942,0.60837 -0.44772,0.60561 0.65708,-0.0389 l 1.18889,-0.69355 -1.14639,-0.11336 z m 4.83618,-0.78574 c 0.63448,-0.70349 0.62259,-0.71534 -0.71549,-0.71307 -1.33809,0.002 -1.34994,0.0142 -0.71308,0.71548 0.3562,0.39226 0.67817,0.71315 0.7155,0.71308 0.0373,-6e-5 0.35821,-0.32203 0.71307,-0.71549 z m 3.54448,-2.11103 c 0.17814,-0.28933 -8.37773,-0.14378 -9.26208,0.15757 -0.19631,0.0669 1.76306,0.13074 4.35417,0.14185 2.5911,0.0111 4.79967,-0.12362 4.90791,-0.29942 z"
       id="path3956"
       inkscape:connector-curvature="0" />
    <path
       style="opacity:1;fill:#cccccc;fill-opacity:1;stroke:#676a6a;stroke-width:0.57943696;stroke-linecap:round;stroke-miterlimit:4;stroke-dasharray:none;stroke-opacity:1"
       d="m 371.78941,711.55055 c 0.41704,-3.271 3.1081,-17.08551 3.38863,-17.39559 0.35805,-0.39574 5.42287,-1.63265 14.18592,-3.46442 7.03247,-1.47002 8.80829,-1.68774 9.1587,-1.12292 0.42775,0.68951 -1.66986,10.70312 -3.39157,16.19075 -0.69221,2.20627 -0.93567,2.57615 -1.98603,3.01709 -2.30244,0.96661 -13.28522,3.31927 -19.85352,4.2529 l -1.72176,0.24474 0.21963,-1.72255 z"
       id="path3958"
       inkscape:connector-curvature="0" />
    <path
       style="opacity:1;fill:#000000;fill-opacity:1;stroke:#676a6a;stroke-width:0.57943696;stroke-linecap:round;stroke-miterlimit:4;stroke-dasharray:none;stroke-opacity:1"
       d="m 341.57099,822.34656 c 0.26842,-2.43945 7.79866,-37.5479 8.12334,-37.8737 0.45061,-0.45213 6.21385,-0.82865 18.65256,-1.21858 17.78534,-0.55757 28.00483,-0.75371 24.82066,-0.47641 -1.49718,0.13039 -2.63913,0.39067 -2.58964,0.59024 0.0985,0.39674 7.96539,0.67952 9.33929,0.3357 0.91893,-0.22996 0.67742,-0.70782 -0.49975,-0.98886 -0.39302,-0.0938 0.16128,-0.19072 1.23178,-0.21532 1.1634,-0.0268 1.81008,0.0846 1.60761,0.2768 -0.57894,0.54955 -58.55947,40.25939 -60.41536,41.37744 -0.41943,0.25268 -0.46422,-0.0465 -0.27049,-1.80731 z m 3.94448,-2.34334 c 1.18272,-0.5413 1.4196,-1.28505 0.55592,-1.7454 -0.41539,-0.22141 -0.70225,-0.74524 -0.70317,-1.28402 -0.002,-1.13474 -0.77884,-0.96104 -1.11484,0.24926 -0.3679,1.32518 -0.34895,3.1884 0.0324,3.18775 0.18719,-3.1e-4 0.74053,-0.18373 1.22966,-0.40759 z m 4.36721,-6.2272 c 1.33621,-1.02276 1.5226,-1.59155 0.521,-1.58986 -0.36888,6.3e-4 -0.9166,-0.36005 -1.21711,-0.80151 l -0.5464,-0.80265 -0.38968,1.00606 c -0.51103,1.31936 -0.49574,3.10259 0.0265,3.10171 0.22699,-3.9e-4 0.94951,-0.41158 1.6056,-0.91375 z m 2.18028,-3.12789 c 0.36181,-0.28134 0.33188,-0.4891 -0.14636,-1.01574 -0.94068,-1.03592 -1.91939,-0.8562 -1.91734,0.35208 9.4e-4,0.55654 0.098,1.1078 0.21556,1.22502 0.24438,0.24356 1.1775,-0.0399 1.84814,-0.56136 z m 7.43646,-6.2775 c 17.2257,-10.84754 21.9202,-13.96533 21.46442,-14.2552 -0.72759,-0.46273 -24.69977,-0.58638 -25.54579,-0.13176 -0.44487,0.23906 -0.78414,0.88935 -0.90545,1.7355 -0.1067,0.74426 -0.77318,4.63202 -1.48107,8.63949 -1.22834,6.95385 -1.32123,8.25386 -0.58972,8.25262 0.17844,-3e-4 3.35436,-1.90859 7.05761,-4.24065 z m 24.75081,-14.93158 c -5.1e-4,-0.30081 -0.25296,-0.64315 -0.56101,-0.76076 -0.67212,-0.25661 -1.40352,0.37665 -1.06509,0.92217 0.36482,0.58807 1.62716,0.46276 1.6261,-0.16141 z m 7.84506,-2.25277 c 0.98523,-0.56489 1.68421,-1.13384 1.5533,-1.26432 -0.46894,-0.46734 -3.10519,-0.22625 -3.73001,0.34113 -0.51637,0.4689 -1.45584,0.5656 -5.15103,0.53019 -3.54835,-0.034 -4.48631,0.0556 -4.36519,0.4171 0.21131,0.63063 4.55974,1.28607 7.49892,1.13033 1.8388,-0.0974 2.82308,-0.36837 4.19401,-1.15443 z m 5.0025,-1.85999 c 0.43812,-0.82197 0.13291,-1.07659 -1.28762,-1.07419 -1.48563,0.003 -1.79059,0.4946 -0.87316,1.40893 0.78753,0.78487 1.63391,0.65376 2.16078,-0.33474 z"
       id="path3960"
       inkscape:connector-curvature="0" />
    <path
       style="opacity:1;fill:#cccccc;fill-opacity:1;stroke:#676a6a;stroke-width:0.57943696;stroke-linecap:round;stroke-miterlimit:4;stroke-dasharray:none;stroke-opacity:1"
       d="m 341.99904,822.32865 c 0.88208,-5.11314 7.81308,-37.25847 8.09432,-37.54066 0.66692,-0.66919 39.77069,-1.96242 40.16409,-1.32831 0.13572,0.21876 1.07532,0.50624 2.08799,0.63884 1.26616,0.16577 1.7875,0.38182 1.66919,0.69171 -0.0946,0.24785 0.26462,0.79292 0.79833,1.21128 0.53371,0.41836 0.90576,0.81437 0.82677,0.88003 -0.26305,0.21869 -37.11649,25.43395 -45.56102,31.17301 l -8.3175,5.65275 0.23783,-1.37865 z m 4.32311,-2.48072 0.91503,-0.91814 -0.71991,-0.77863 c -0.39596,-0.42824 -0.77889,-1.09995 -0.85096,-1.49269 -0.18204,-0.99196 -1.08135,-0.89142 -1.62179,0.18132 -0.47845,0.94971 -0.61681,3.29329 -0.2179,3.69085 0.50417,0.50247 1.61805,0.19773 2.49553,-0.68271 z m 3.54688,-5.59498 c 1.35781,-1.04644 1.58557,-1.40998 1.35158,-2.15746 -0.10755,-0.34357 -0.0355,-0.62494 0.16015,-0.62527 0.73155,-0.001 1.48944,-1.11385 1.15915,-1.70169 -0.26073,-0.46407 0.22774,-0.88857 2.58327,-2.24494 3.44015,-1.98094 20.79057,-13.02813 24.01969,-15.29359 1.23875,-0.86908 2.25192,-1.78553 2.2515,-2.03659 -0.001,-0.69615 -3.58818,-0.90544 -15.22982,-0.88857 -9.38983,0.0139 -10.48003,0.0762 -11.1556,0.64135 -0.61973,0.51836 -0.96595,1.88822 -2.00918,7.94984 -0.69324,4.02797 -1.29079,8.13021 -1.3279,9.11609 -0.0624,1.6571 -0.13492,1.79212 -0.96033,1.78734 -0.74913,-0.005 -0.92208,0.19612 -1.07427,1.24514 -0.1352,0.93193 -0.24576,1.09127 -0.43416,0.62574 -0.13902,-0.34352 -0.38623,-0.62435 -0.54937,-0.62408 -0.42459,7.2e-4 -1.15069,2.18175 -1.14854,3.44993 0.003,1.7906 0.72321,2.02116 2.36383,0.75676 z m 34.54122,-24.80296 c -0.0181,-0.65233 0.21501,-0.71544 2.68817,-0.72783 2.22924,-0.0108 3.06879,-0.19087 4.74901,-1.01646 1.4316,-0.70342 2.0407,-1.20831 2.03988,-1.69089 -9.5e-4,-0.56269 -0.25715,-0.68759 -1.40648,-0.68564 -0.77293,0.001 -1.85742,0.19969 -2.40997,0.44086 -0.55256,0.24116 -3.01344,0.52657 -5.46862,0.63426 -3.64624,0.15991 -4.46379,0.29392 -4.46305,0.7315 5e-4,0.29626 0.52023,0.68764 1.16277,0.87562 0.88641,0.25932 1.11418,0.49102 0.96075,0.97731 -0.29715,0.94177 0.14885,1.41256 1.2191,1.28688 0.68154,-0.0801 0.94266,-0.31223 0.92844,-0.82561 z"
       id="path3962"
       inkscape:connector-curvature="0" />
    <path
       style="opacity:1;fill:#000000;fill-opacity:1;stroke:#676a6a;stroke-width:0.57943696;stroke-linecap:round;stroke-miterlimit:4;stroke-dasharray:none;stroke-opacity:1"
       d="m 352.86326,806.74109 c 0.018,-1.32048 2.65985,-15.59556 2.93798,-15.87462 0.45019,-0.45173 6.42842,-0.5809 15.06799,-0.32557 l 8.40242,0.24831 -10.80153,6.86541 c -17.37431,11.04303 -15.61955,10.02139 -15.60686,9.08647 z"
       id="path3964"
       inkscape:connector-curvature="0" />
    <path
       style="opacity:1;fill:#000000;fill-opacity:1;stroke:#676a6a;stroke-width:0.57943696;stroke-linecap:round;stroke-miterlimit:4;stroke-dasharray:none;stroke-opacity:1"
       d="m 372.13828,712.08843 c 0.1036,-0.45781 0.34572,-1.87729 0.53802,-3.15441 0.49794,-3.3069 2.71372,-14.28108 2.9266,-14.49468 0.42799,-0.42944 15.73399,-3.83937 20.94348,-4.66588 l 1.57159,-0.24933 -0.19672,1.91587 c -0.47395,4.61581 -3.33994,15.50663 -4.34645,16.51655 -0.72652,0.72899 -12.59114,3.49656 -18.74084,4.37154 -0.88372,0.12574 -1.89415,0.31054 -2.24541,0.41067 -0.51511,0.14685 -0.6022,0.021 -0.45027,-0.65033 z"
       id="path3966"
       inkscape:connector-curvature="0" />
  </g>
  <g
     inkscape:label="Layer 1"
     inkscape:groupmode="layer"
     id="layer1"
     transform="translate(0,-496.06332)">
    <g
       sodipodi:type="inkscape:box3d"
       id="g3338"
       style="opacity:1;fill:#000000;fill-opacity:1;stroke:#676a6a;stroke-width:1.62242341;stroke-linecap:round;stroke-miterlimit:4;stroke-dasharray:none;stroke-opacity:1"
       inkscape:perspectiveID="#perspective3560"
       inkscape:corner0="4.1231751 : 1.0923958 : 0 : 1"
       inkscape:corner7="1.1430184 : 0.8248813 : 0.24286711 : 1">
      <path
         sodipodi:type="inkscape:box3dside"
         id="path3350"
         style="fill:#e9e9ff;fill-rule:evenodd;stroke:none;stroke-width:1px;stroke-linecap:butt;stroke-linejoin:round;stroke-opacity:1"
         inkscape:box3dsidetype="11"
         d="M 240.42908,667.73471 501.53579,556.18548 487.70316,659.05578 221.97252,725.90593 Z"
         points="501.53579,556.18548 487.70316,659.05578 221.97252,725.90593 240.42908,667.73471 " />
      <path
         sodipodi:type="inkscape:box3dside"
         id="path3340"
         style="fill:#353564;fill-rule:evenodd;stroke:none;stroke-width:1px;stroke-linecap:butt;stroke-linejoin:round;stroke-opacity:1"
         inkscape:box3dsidetype="6"
         d="m 210.19284,651.46464 -20.57004,59.81469 32.34972,14.6266 18.45656,-58.17122 z"
         points="189.6228,711.27933 221.97252,725.90593 240.42908,667.73471 210.19284,651.46464 " />
      <path
         sodipodi:type="inkscape:box3dside"
         id="path3342"
         style="fill:#4d4d9f;fill-rule:evenodd;stroke:none;stroke-width:1px;stroke-linecap:butt;stroke-linejoin:round;stroke-opacity:1"
         inkscape:box3dsidetype="5"
         d="M 210.19284,651.46464 463.04883,516.5555 501.53579,556.18548 240.42908,667.73471 Z"
         points="463.04883,516.5555 501.53579,556.18548 240.42908,667.73471 210.19284,651.46464 " />
      <path
         sodipodi:type="inkscape:box3dside"
         id="path3348"
         style="fill:#1a1a1a;fill-rule:evenodd;stroke:none;stroke-width:1px;stroke-linecap:butt;stroke-linejoin:round;stroke-opacity:1"
         inkscape:box3dsidetype="13"
         d="m 189.6228,711.27933 254.9924,-87.0076 43.08796,34.78405 -265.73064,66.85015 z"
         points="444.6152,624.27173 487.70316,659.05578 221.97252,725.90593 189.6228,711.27933 " />
      <path
         sodipodi:type="inkscape:box3dside"
         id="path3346"
         style="fill:#333333;fill-rule:evenodd;stroke:none;stroke-width:1px;stroke-linecap:butt;stroke-linejoin:round;stroke-opacity:1"
         inkscape:box3dsidetype="14"
         d="m 463.04883,516.5555 -18.43363,107.71623 43.08796,34.78405 13.83263,-102.8703 z"
         points="444.6152,624.27173 487.70316,659.05578 501.53579,556.18548 463.04883,516.5555 " />
      <path
         sodipodi:type="inkscape:box3dside"
         id="path3344"
         style="fill:#ff0000;fill-rule:evenodd;stroke:none;stroke-width:1px;stroke-linecap:butt;stroke-linejoin:round;stroke-opacity:1"
         inkscape:box3dsidetype="3"
         d="M 210.19284,651.46464 463.04883,516.5555 444.6152,624.27173 189.6228,711.27933 Z"
         points="463.04883,516.5555 444.6152,624.27173 189.6228,711.27933 210.19284,651.46464 " />
    </g>
    <g
       sodipodi:type="inkscape:box3d"
       id="g3352"
       style="opacity:1;fill:#000000;fill-opacity:1;stroke:#676a6a;stroke-width:1.62242341;stroke-linecap:round;stroke-miterlimit:4;stroke-dasharray:none;stroke-opacity:1"
       inkscape:perspectiveID="#perspective3336"
       inkscape:corner0="2.4111609 : 0.82278133 : 0 : 1"
       inkscape:corner7="2.0136914 : 0.15845696 : 0.24212637 : 1">
      <path
         sodipodi:type="inkscape:box3dside"
         id="path3362"
         style="fill:#afafde;fill-rule:evenodd;stroke:none;stroke-width:1px;stroke-linecap:butt;stroke-linejoin:round;stroke-opacity:1"
         inkscape:box3dsidetype="13"
         d="m 222.19256,931.51106 35.89989,16.63619 53.62405,9.93601 -39.21114,-16.61552 z"
         points="258.09245,948.14725 311.7165,958.08326 272.50536,941.46774 222.19256,931.51106 " />
      <path
         sodipodi:type="inkscape:box3dside"
         id="path3354"
         style="fill:#353564;fill-rule:evenodd;stroke:none;stroke-width:1px;stroke-linecap:butt;stroke-linejoin:round;stroke-opacity:1"
         inkscape:box3dsidetype="6"
         d="m 292.06807,676.3545 -69.87551,255.15656 50.3128,9.95668 58.62842,-242.83198 z"
         points="222.19256,931.51106 272.50536,941.46774 331.13378,698.63576 292.06807,676.3545 " />
      <path
         sodipodi:type="inkscape:box3dside"
         id="path3364"
         style="fill:#e9e9ff;fill-rule:evenodd;stroke:none;stroke-width:1px;stroke-linecap:butt;stroke-linejoin:round;stroke-opacity:1"
         inkscape:box3dsidetype="11"
         d="m 331.13378,698.63576 38.5379,-9.75541 -57.95518,269.20291 -39.21114,-16.61552 z"
         points="369.67168,688.88035 311.7165,958.08326 272.50536,941.46774 331.13378,698.63576 " />
      <path
         sodipodi:type="inkscape:box3dside"
         id="path3356"
         style="fill:#4d4d9f;fill-rule:evenodd;stroke:none;stroke-width:1px;stroke-linecap:butt;stroke-linejoin:round;stroke-opacity:1"
         inkscape:box3dsidetype="5"
         d="m 292.06807,676.3545 36.92277,-12.67949 40.68084,25.20534 -38.5379,9.75541 z"
         points="328.99084,663.67501 369.67168,688.88035 331.13378,698.63576 292.06807,676.3545 " />
      <path
         sodipodi:type="inkscape:box3dside"
         id="path3360"
         style="fill:#1a1a1a;fill-rule:evenodd;stroke:none;stroke-width:1px;stroke-linecap:butt;stroke-linejoin:round;stroke-opacity:1"
         inkscape:box3dsidetype="14"
         d="m 328.99084,663.67501 -70.89839,284.47224 53.62405,9.93601 57.95518,-269.20291 z"
         points="258.09245,948.14725 311.7165,958.08326 369.67168,688.88035 328.99084,663.67501 " />
      <path
         sodipodi:type="inkscape:box3dside"
         id="path3358"
         style="fill:#ff0000;fill-rule:evenodd;stroke:none;stroke-width:1px;stroke-linecap:butt;stroke-linejoin:round;stroke-opacity:1"
         inkscape:box3dsidetype="3"
         d="m 292.06807,676.3545 36.92277,-12.67949 -70.89839,284.47224 -35.89989,-16.63619 z"
         points="328.99084,663.67501 258.09245,948.14725 222.19256,931.51106 292.06807,676.3545 " />
    </g>
    <g
       sodipodi:type="inkscape:box3d"
       id="g3380"
       style="opacity:1;fill:#000000;fill-opacity:1;stroke:#676a6a;stroke-width:1.62242341;stroke-linecap:round;stroke-miterlimit:4;stroke-dasharray:none;stroke-opacity:1"
       inkscape:perspectiveID="#perspective3336"
       inkscape:corner0="1.315766 : 0.82204727 : 0 : 1"
       inkscape:corner7="1.1399746 : 0.62908143 : 0.24090948 : 1">
      <path
         sodipodi:type="inkscape:box3dside"
         id="path3392"
         style="fill:#e9e9ff;fill-rule:evenodd;stroke:none;stroke-width:1px;stroke-linecap:butt;stroke-linejoin:round;stroke-opacity:1"
         inkscape:box3dsidetype="11"
         d="m 459.02213,666.34396 28.72336,-7.26649 -11.52583,86.788 -29.82718,2.91764 z"
         points="487.74549,659.07747 476.21966,745.86547 446.39248,748.78311 459.02213,666.34396 " />
      <path
         sodipodi:type="inkscape:box3dside"
         id="path3382"
         style="fill:#353564;fill-rule:evenodd;stroke:none;stroke-width:1px;stroke-linecap:butt;stroke-linejoin:round;stroke-opacity:1"
         inkscape:box3dsidetype="6"
         d="m 416.39335,633.95108 -16.45617,87.06066 46.4553,27.77137 12.62965,-82.43915 z"
         points="399.93718,721.01174 446.39248,748.78311 459.02213,666.34396 416.39335,633.95108 " />
      <path
         sodipodi:type="inkscape:box3dside"
         id="path3384"
         style="fill:#4d4d9f;fill-rule:evenodd;stroke:none;stroke-width:1px;stroke-linecap:butt;stroke-linejoin:round;stroke-opacity:1"
         inkscape:box3dsidetype="5"
         d="m 416.39335,633.95108 28.52956,-9.77997 42.82258,34.90636 -28.72336,7.26649 z"
         points="444.92291,624.17111 487.74549,659.07747 459.02213,666.34396 416.39335,633.95108 " />
      <path
         sodipodi:type="inkscape:box3dside"
         id="path3390"
         style="fill:#afafde;fill-rule:evenodd;stroke:none;stroke-width:1px;stroke-linecap:butt;stroke-linejoin:round;stroke-opacity:1"
         inkscape:box3dsidetype="13"
         d="m 399.93718,721.01174 29.47298,-4.93452 46.8095,29.78825 -29.82718,2.91764 z"
         points="429.41016,716.07722 476.21966,745.86547 446.39248,748.78311 399.93718,721.01174 " />
      <path
         sodipodi:type="inkscape:box3dside"
         id="path3388"
         style="fill:#333333;fill-rule:evenodd;stroke:none;stroke-width:1px;stroke-linecap:butt;stroke-linejoin:round;stroke-opacity:1"
         inkscape:box3dsidetype="14"
         d="m 444.92291,624.17111 -15.51275,91.90611 46.8095,29.78825 11.52583,-86.788 z"
         points="429.41016,716.07722 476.21966,745.86547 487.74549,659.07747 444.92291,624.17111 " />
      <path
         sodipodi:type="inkscape:box3dside"
         id="path3386"
         style="fill:#ff0000;fill-rule:evenodd;stroke:none;stroke-width:1px;stroke-linecap:butt;stroke-linejoin:round;stroke-opacity:1"
         inkscape:box3dsidetype="3"
         d="m 416.39335,633.95108 28.52956,-9.77997 -15.51275,91.90611 -29.47298,4.93452 z"
         points="444.92291,624.17111 429.41016,716.07722 399.93718,721.01174 416.39335,633.95108 " />
    </g>
    <g
       sodipodi:type="inkscape:box3d"
       id="g3394"
       style="opacity:1;fill:#000000;fill-opacity:1;stroke:#676a6a;stroke-width:1.62242341;stroke-linecap:round;stroke-miterlimit:4;stroke-dasharray:none;stroke-opacity:1"
       inkscape:perspectiveID="#perspective3370"
       inkscape:corner0="2.2948371 : 0.63533466 : 0 : 1"
       inkscape:corner7="0.82114186 : 0.55797107 : 0.25238533 : 1">
      <path
         sodipodi:type="inkscape:box3dside"
         id="path3406"
         style="fill:#e9e9ff;fill-rule:evenodd;stroke:none;stroke-width:1px;stroke-linecap:butt;stroke-linejoin:round;stroke-opacity:1"
         inkscape:box3dsidetype="11"
         d="m 355.79207,757.54643 226.34706,-21.11403 -8.60829,39.89413 -227.52241,7.19061 z"
         points="582.13913,736.4324 573.53084,776.32653 346.00843,783.51714 355.79207,757.54643 " />
      <path
         sodipodi:type="inkscape:box3dside"
         id="path3396"
         style="fill:#353564;fill-rule:evenodd;stroke:none;stroke-width:1px;stroke-linecap:butt;stroke-linejoin:round;stroke-opacity:1"
         inkscape:box3dsidetype="6"
         d="m 312.60903,730.59234 -11.29164,27.13073 44.69104,25.79407 9.78364,-25.97071 z"
         points="301.31739,757.72307 346.00843,783.51714 355.79207,757.54643 312.60903,730.59234 " />
      <path
         sodipodi:type="inkscape:box3dside"
         id="path3398"
         style="fill:#4d4d9f;fill-rule:evenodd;stroke:none;stroke-width:1px;stroke-linecap:butt;stroke-linejoin:round;stroke-opacity:1"
         inkscape:box3dsidetype="5"
         d="m 312.60903,730.59234 223.69613,-39.45371 45.83397,45.29377 -226.34706,21.11403 z"
         points="536.30516,691.13863 582.13913,736.4324 355.79207,757.54643 312.60903,730.59234 " />
      <path
         sodipodi:type="inkscape:box3dside"
         id="path3404"
         style="fill:#1a1a1a;fill-rule:evenodd;stroke:none;stroke-width:1px;stroke-linecap:butt;stroke-linejoin:round;stroke-opacity:1"
         inkscape:box3dsidetype="13"
         d="m 301.31739,757.72307 223.97585,-23.93105 48.2376,42.53451 -227.52241,7.19061 z"
         points="525.29324,733.79202 573.53084,776.32653 346.00843,783.51714 301.31739,757.72307 " />
      <path
         sodipodi:type="inkscape:box3dside"
         id="path3402"
         style="fill:#d7d7ff;fill-rule:evenodd;stroke:none;stroke-width:1px;stroke-linecap:butt;stroke-linejoin:round;stroke-opacity:1"
         inkscape:box3dsidetype="14"
         d="m 536.30516,691.13863 -11.01192,42.65339 48.2376,42.53451 8.60829,-39.89413 z"
         points="525.29324,733.79202 573.53084,776.32653 582.13913,736.4324 536.30516,691.13863 " />
      <path
         sodipodi:type="inkscape:box3dside"
         id="path3400"
         style="fill:#ff0000;fill-rule:evenodd;stroke:none;stroke-width:1px;stroke-linecap:butt;stroke-linejoin:round;stroke-opacity:1"
         inkscape:box3dsidetype="3"
         d="m 312.60903,730.59234 223.69613,-39.45371 -11.01192,42.65339 -223.97585,23.93105 z"
         points="536.30516,691.13863 525.29324,733.79202 301.31739,757.72307 312.60903,730.59234 " />
    </g>
    <g
       sodipodi:type="inkscape:box3d"
       id="g3415"
       style="opacity:1;fill:#000000;fill-opacity:1;stroke:#676a6a;stroke-width:1.62242341;stroke-linecap:round;stroke-miterlimit:4;stroke-dasharray:none;stroke-opacity:1"
       inkscape:perspectiveID="#perspective3429"
       inkscape:corner0="1.0468185 : 0.40126361 : 0 : 1"
       inkscape:corner7="0.9359121 : -0.14452291 : 0.16959736 : 1"
       inkscape:transform-center-x="-66.991351"
       inkscape:transform-center-y="-20.758829">
      <path
         sodipodi:type="inkscape:box3dside"
         id="path3425"
         style="fill:#afafde;fill-rule:evenodd;stroke:none;stroke-width:1px;stroke-linecap:butt;stroke-linejoin:round;stroke-opacity:1"
         inkscape:box3dsidetype="13"
         d="m 209.79345,914.9051 24.14225,38.18765 75.98095,30.68884 -26.23324,-36.7045 z"
         points="233.9357,953.09275 309.91665,983.78159 283.68341,947.07709 209.79345,914.9051 " />
      <path
         sodipodi:type="inkscape:box3dside"
         id="path3417"
         style="fill:#353564;fill-rule:evenodd;stroke:none;stroke-width:1px;stroke-linecap:butt;stroke-linejoin:round;stroke-opacity:1"
         inkscape:box3dsidetype="6"
         d="M 536.9356,691.92048 209.79345,914.9051 283.68341,947.07709 574.22422,731.8316 Z"
         points="209.79345,914.9051 283.68341,947.07709 574.22422,731.8316 536.9356,691.92048 " />
      <path
         sodipodi:type="inkscape:box3dside"
         id="path3427"
         style="fill:#e9e9ff;fill-rule:evenodd;stroke:none;stroke-width:1px;stroke-linecap:butt;stroke-linejoin:round;stroke-opacity:1"
         inkscape:box3dsidetype="11"
         d="m 574.22422,731.8316 33.37592,19.18998 -297.68349,232.76001 -26.23324,-36.7045 z"
         points="607.60014,751.02158 309.91665,983.78159 283.68341,947.07709 574.22422,731.8316 " />
      <path
         sodipodi:type="inkscape:box3dside"
         id="path3419"
         style="fill:#4d4d9f;fill-rule:evenodd;stroke:none;stroke-width:1px;stroke-linecap:butt;stroke-linejoin:round;stroke-opacity:1"
         inkscape:box3dsidetype="5"
         d="m 536.9356,691.92048 34.02839,18.68859 36.63615,40.41251 -33.37592,-19.18998 z"
         points="570.96399,710.60907 607.60014,751.02158 574.22422,731.8316 536.9356,691.92048 " />
      <path
         sodipodi:type="inkscape:box3dside"
         id="path3423"
         style="fill:#333333;fill-rule:evenodd;stroke:none;stroke-width:1px;stroke-linecap:butt;stroke-linejoin:round;stroke-opacity:1"
         inkscape:box3dsidetype="14"
         d="M 570.96399,710.60907 233.9357,953.09275 309.91665,983.78159 607.60014,751.02158 Z"
         points="233.9357,953.09275 309.91665,983.78159 607.60014,751.02158 570.96399,710.60907 " />
      <path
         sodipodi:type="inkscape:box3dside"
         id="path3421"
         style="fill:#ff0000;fill-rule:evenodd;stroke:none;stroke-width:1px;stroke-linecap:butt;stroke-linejoin:round;stroke-opacity:1"
         inkscape:box3dsidetype="3"
         d="M 536.9356,691.92048 570.96399,710.60907 233.9357,953.09275 209.79345,914.9051 Z"
         points="570.96399,710.60907 233.9357,953.09275 209.79345,914.9051 536.9356,691.92048 " />
    </g>
  </g>
</svg>
